<svg xmlns="http://www.w3.org/2000/svg" viewBox="0 0 256 256">
  <rect width="256" height="256" rx="36" fill="#1a2023"/>
  <path d="M128 208 57 135c-18-18-18-49 0-67 17-18 46-19 64-2l7 7 7-7c18-17 47-16 64 2 18 18 18 49 0 67z" fill="#2f2d2d"/>
  <path d="M128 190 72 133c-10-11-10-30 0-40 10-11 28-11 39-1l17 16 17-16c11-10 29-10 39 1 10 10 10 29 0 40z" fill="#4f4541"/>
  <path d="M153 75c25 20 37 42 37 67" fill="none" stroke="#ff8e58" stroke-width="12" stroke-linecap="round"/>
  <path d="M129 110c8 6 15 15 18 28" fill="none" stroke="#ffcf7b" stroke-width="8" stroke-linecap="round"/>
</svg>
