<svg xmlns="http://www.w3.org/2000/svg" viewBox="0 0 256 256" role="img" aria-labelledby="title desc">
  <title id="title">Lava Whip</title>
  <desc id="desc">A glowing molten whip icon on a dark ember background.</desc>
  <defs>
    <linearGradient id="bg" x1="0" x2="1" y1="0" y2="1">
      <stop offset="0%" stop-color="#29120d"/>
      <stop offset="100%" stop-color="#12090a"/>
    </linearGradient>
    <linearGradient id="lava" x1="0" x2="1" y1="0" y2="1">
      <stop offset="0%" stop-color="#fff0a8"/>
      <stop offset="45%" stop-color="#ff9a3d"/>
      <stop offset="100%" stop-color="#d9461f"/>
    </linearGradient>
  </defs>
  <rect width="256" height="256" rx="42" fill="url(#bg)"/>
  <circle cx="128" cy="128" r="92" fill="#472017" opacity="0.55"/>
  <path d="M74 181C97 134 105 97 145 80c15-7 30-5 41 2 9 6 12 16 8 25-7 18-30 17-42 29-16 15-15 34-4 54" fill="none" stroke="url(#lava)" stroke-linecap="round" stroke-width="20"/>
  <path d="M162 70l17 26 18 2-14 16 5 18-26-14" fill="#ffe3a0" opacity="0.95"/>
  <circle cx="72" cy="184" r="18" fill="#ffcf7a"/>
  <circle cx="72" cy="184" r="9" fill="#fff7cf"/>
</svg>
